<svg xmlns="http://www.w3.org/2000/svg" version="1.1" xmlns:xlink="http://www.w3.org/1999/xlink" xmlns:svgjs="http://svgjs.dev/svgjs" width="1000" height="1000"><g clip-path="url(#SvgjsClipPath1133)"><rect width="1000" height="1000" fill="#ffffff"></rect><g transform="matrix(3.017631590291848,0,0,3.017631590291848,150,300.85140319868947)"><svg xmlns="http://www.w3.org/2000/svg" version="1.1" xmlns:xlink="http://www.w3.org/1999/xlink" xmlns:svgjs="http://svgjs.dev/svgjs" width="231.97" height="131.99"><svg version="1.1" id="Layer_1" xmlns="http://www.w3.org/2000/svg" xmlns:xlink="http://www.w3.org/1999/xlink" x="0px" y="0px" viewBox="0 0 231.97 131.99" style="enable-background:new 0 0 231.97 131.99;" xml:space="preserve">
<style type="text/css">
	.st0{fill:url(#SVGID_1_);}
</style>
<g>
	<linearGradient id="SVGID_1_" gradientUnits="userSpaceOnUse" x1="2.7811" y1="139.9598" x2="218.5173" y2="-0.9993">
		<stop offset="0" style="stop-color:#4CC3FF"></stop>
		<stop offset="1" style="stop-color:#BD34FF"></stop>
	</linearGradient>
	<path class="st0" d="M216.26,20.43C205.41,7.25,190.73,0,174.92,0c-15.81,0-30.49,7.25-41.34,20.43l-17.59,21.37L98.39,20.43
		C87.55,7.25,72.87,0,57.05,0C41.24,0,26.56,7.25,15.71,20.43v0C5.58,32.73,0,48.92,0,65.99c0,17.08,5.58,33.26,15.71,45.57
		c10.85,13.17,25.53,20.43,41.34,20.43c0,0,0,0,0,0c15.81,0,30.5-7.26,41.34-20.43l17.59-21.37l17.59,21.37
		c10.85,13.17,25.53,20.43,41.34,20.43c15.81,0,30.49-7.25,41.34-20.43c10.13-12.31,15.71-28.49,15.71-45.57
		C231.97,48.92,226.39,32.73,216.26,20.43z M74.64,92c-4.89,5.94-11.14,9.22-17.59,9.22c-6.45,0-12.7-3.27-17.59-9.22
		c-11.61-14.1-11.61-37.92,0-52.02c4.89-5.94,11.14-9.22,17.59-9.22c6.45,0,12.7,3.27,17.59,9.22l21.42,26.01l0,0v0L74.64,92z
		 M192.51,92c-4.89,5.94-11.14,9.22-17.59,9.22c-6.45,0-12.7-3.27-17.59-9.22l-21.42-26.01l21.42-26.01
		c4.89-5.94,11.14-9.22,17.59-9.22c6.45,0,12.7,3.27,17.59,9.22C204.12,54.08,204.12,77.9,192.51,92z"></path>
</g>
</svg></svg></g></g><defs><clipPath id="SvgjsClipPath1133"><rect width="1000" height="1000" x="0" y="0" rx="500" ry="500"></rect></clipPath></defs></svg>