<?xml version="1.0" encoding="utf-8"?>
<!-- Generator: Adobe Illustrator 26.5.0, SVG Export Plug-In . SVG Version: 6.00 Build 0)  -->
<svg version="1.1" id="Layer_1" xmlns="http://www.w3.org/2000/svg" xmlns:xlink="http://www.w3.org/1999/xlink" x="0px" y="0px"
	 viewBox="0 0 526.39 167.91" style="enable-background:new 0 0 526.39 167.91;" xml:space="preserve">
<style type="text/css">
	.st0{fill:url(#SVGID_1_);}
	.st1{fill:#1CA5FF;}
</style>
<g>
	<linearGradient id="SVGID_1_" gradientUnits="userSpaceOnUse" x1="160.3456" y1="157.9222" x2="376.0818" y2="16.9631">
		<stop  offset="0" style="stop-color:#4CC3FF"/>
		<stop  offset="1" style="stop-color:#BD34FF"/>
	</linearGradient>
	<path class="st0" d="M373.82,38.39c-10.85-13.17-25.53-20.43-41.34-20.43c-15.81,0-30.49,7.25-41.34,20.43l-17.59,21.37
		l-17.59-21.37c-10.85-13.17-25.53-20.43-41.34-20.43c-15.81,0-30.49,7.25-41.34,20.43v0c-10.13,12.31-15.71,28.49-15.71,45.56
		c0,17.08,5.58,33.26,15.71,45.57c10.85,13.17,25.53,20.43,41.34,20.43c0,0,0,0,0,0c15.81,0,30.5-7.26,41.34-20.43l17.59-21.37
		l17.59,21.37c10.85,13.17,25.53,20.43,41.34,20.43c15.81,0,30.49-7.25,41.34-20.43c10.13-12.31,15.71-28.49,15.71-45.57
		C389.54,66.88,383.96,50.7,373.82,38.39z M232.21,109.97c-4.89,5.94-11.14,9.22-17.59,9.22c-6.45,0-12.7-3.27-17.59-9.22
		c-11.61-14.1-11.61-37.92,0-52.02c4.89-5.94,11.14-9.22,17.59-9.22c6.45,0,12.7,3.27,17.59,9.22l21.42,26.01l0,0v0L232.21,109.97z
		 M350.07,109.97c-4.89,5.94-11.14,9.22-17.59,9.22s-12.7-3.27-17.59-9.22l-21.42-26.01l21.42-26.01
		c4.89-5.94,11.14-9.22,17.59-9.22s12.7,3.27,17.59,9.22C361.68,72.04,361.68,95.87,350.07,109.97z"/>
	<path class="st1" d="M0,83.96C0,36.22,36.92,0,85.84,0c30.57,0,56.44,14.11,71.73,36.45l-31.51,19.52
		c-8.7-12.7-23.28-20.93-40.21-20.93c-27.51,0-48.45,20.93-48.45,48.92s20.93,48.92,48.45,48.92c16.93,0,31.51-8.23,40.21-20.93
		l31.51,19.52c-15.29,22.34-41.15,36.45-71.73,36.45C36.92,167.91,0,131.7,0,83.96z"/>
	<path class="st1" d="M393.28,142.51l18.81-27.75c13.17,12.23,32.69,20.7,49.86,20.7c14.58,0,27.04-6.35,27.04-15.99
		c0-11.29-15.52-15.05-32.69-19.28c-32.45-7.76-56.68-23.05-56.68-51.74C399.63,19.28,424.79,0,462.19,0
		c24.93,0,45.39,8.47,57.38,19.99l-16.93,27.75c-9.41-8.94-25.4-15.29-40.68-15.29c-14.58,0-24.93,6.11-24.93,14.58
		c0,10.58,14.82,15.52,29.63,18.58c14.35,3.06,59.73,14.35,59.73,52.21c0,29.87-27.99,50.09-64.2,50.09
		C437.02,167.91,410.21,157.8,393.28,142.51z"/>
</g>
</svg>
